# Blender v2.77 (sub 0) OBJ File: ''
# www.blender.org
o Cube
v 1.005349 -0.006914 -1.015666
v 1.005349 -0.006914 0.984334
v -0.994651 -0.006914 0.984333
v -0.994651 -0.006914 -1.015667
v 1.005349 1.993086 -1.015666
v 1.005348 1.993086 0.984334
v -0.994652 1.993086 0.984333
v -0.994651 1.993086 -1.015666
vn 0.0000 -1.0000 0.0000
vn 0.0000 1.0000 0.0000
vn 1.0000 -0.0000 0.0000
vn -0.0000 -0.0000 1.0000
vn -1.0000 -0.0000 -0.0000
vn 0.0000 0.0000 -1.0000
s off
f 2//1 4//1 1//1
f 8//2 6//2 5//2
f 5//3 2//3 1//3
f 6//4 3//4 2//4
f 7//5 4//5 3//5
f 1//6 8//6 5//6
f 2//1 3//1 4//1
f 8//2 7//2 6//2
f 5//3 6//3 2//3
f 6//4 7//4 3//4
f 7//5 8//5 4//5
f 1//6 4//6 8//6
