# Blender v2.77 (sub 0) OBJ File: ''
# www.blender.org
mtllib cubone3.mtl
o Cube.001
v 1.354720 0.036075 1.405697
v -1.354352 0.036075 -1.303376
v 1.354720 0.036075 -1.303375
v -1.354352 2.745147 -1.303375
v 1.354719 2.745147 1.405698
v 1.354720 2.745147 -1.303374
v -1.354353 0.036075 1.405697
v -1.354353 2.745147 1.405697
vt 0.3333 0.6667
vt 0.0000 1.0000
vt 0.0000 0.6667
vt 0.3333 0.6667
vt 0.0000 0.3333
vt 0.3333 0.3333
vt 0.6667 0.0000
vt 0.6667 0.3333
vt 0.0000 0.0000
vt 0.3333 0.3333
vt 0.0000 0.3333
vt 1.0000 0.3333
vt 0.6667 0.0000
vt 1.0000 0.0000
vt 0.3333 1.0000
vt 0.0000 0.6667
vt 0.3333 0.0000
vt 0.3333 0.0000
vt 0.6667 0.3333
vt 0.6667 0.6667
vn 0.0000 -1.0000 -0.0000
vn -0.0000 1.0000 0.0000
vn 0.5773 0.5774 0.5774
vn 0.7071 0.7071 0.0000
vn 0.7071 -0.0000 0.7071
vn 1.0000 0.0000 0.0000
vn -0.0000 -0.0000 1.0000
vn -1.0000 -0.0000 -0.0000
vn 0.0000 0.0000 -1.0000
vn -0.0000 0.7071 0.7071
usemtl Material.001
s 1
f 1/1/1 2/2/1 3/3/1
f 4/4/2 5/5/3 6/6/4
f 6/6/4 1/7/5 3/8/6
f 5/9/3 7/10/7 1/11/5
f 7/12/8 4/13/8 2/14/8
f 3/8/9 4/4/9 6/6/9
f 1/1/1 7/15/1 2/2/1
f 4/4/2 8/16/10 5/5/3
f 6/6/4 5/17/3 1/7/5
f 5/9/3 8/18/10 7/10/7
f 7/12/8 8/19/8 4/13/8
f 3/8/9 2/20/9 4/4/9
